<svg width="750" height="438" viewBox="0 0 750 438" fill="none" xmlns="http://www.w3.org/2000/svg">
<path d="M51.7241 307.996L77.5862 295.065L103.448 307.996L77.5862 320.927L51.7241 307.996Z" fill="#6C26D9"/>
<path d="M51.7241 307.996L77.5862 320.927V346.789L51.7241 333.858V307.996Z" fill="#A358FF"/>
<path d="M77.5862 320.927L103.448 307.996V333.858L77.5862 346.789V320.927Z" fill="#2E00A6"/>
<path d="M77.5862 320.927L103.448 307.996L129.31 320.927L103.448 333.858L77.5862 320.927Z" fill="#6C26D9"/>
<path d="M77.5862 320.927L103.448 333.858V359.72L77.5862 346.789V320.927Z" fill="#A358FF"/>
<path d="M103.448 333.858L129.31 320.927V346.789L103.448 359.72V333.858Z" fill="#2E00A6"/>
<path d="M0 346.789L25.8621 333.858L51.7241 346.789L25.8621 359.72L0 346.789Z" fill="#6C26D9"/>
<path d="M0 346.789L25.8621 359.72V385.582L0 372.651V346.789Z" fill="#A358FF"/>
<path d="M25.8621 359.72L51.7241 346.789V372.651L25.8621 385.582V359.72Z" fill="#2E00A6"/>
<path d="M25.8621 359.72L51.7241 346.789L77.5862 359.72L51.7241 372.651L25.8621 359.72Z" fill="#6C26D9"/>
<path d="M25.8621 359.72L51.7241 372.651V398.514L25.8621 385.582V359.72Z" fill="#A358FF"/>
<path d="M51.7241 372.651L77.5862 359.72V385.582L51.7241 398.514V372.651Z" fill="#2E00A6"/>
<path d="M51.7241 372.651L77.5862 359.72L103.448 372.651L77.5862 385.582L51.7241 372.651Z" fill="#6C26D9"/>
<path d="M51.7241 372.651L77.5862 385.582V411.445L51.7241 398.514V372.651Z" fill="#A358FF"/>
<path d="M77.5862 385.582L103.448 372.651V398.514L77.5862 411.445V385.582Z" fill="#2E00A6"/>
<path d="M77.5862 385.582L103.448 372.651L129.31 385.582L103.448 398.514L77.5862 385.582Z" fill="#6C26D9"/>
<path d="M77.5862 385.582L103.448 398.514V424.376L77.5862 411.445V385.582Z" fill="#A358FF"/>
<path d="M103.448 398.514L129.31 385.582V411.445L103.448 424.376V398.514Z" fill="#2E00A6"/>
<path d="M103.448 398.514L129.31 385.582L155.172 398.514L129.31 411.445L103.448 398.514Z" fill="#6C26D9"/>
<path d="M103.448 398.514L129.31 411.445V437.307L103.448 424.376V398.514Z" fill="#A358FF"/>
<path d="M129.31 411.445L155.172 398.514V424.376L129.31 437.307V411.445Z" fill="#2E00A6"/>
<path d="M103.448 372.651L129.31 359.72L155.172 372.651L129.31 385.582L103.448 372.651Z" fill="#6C26D9"/>
<path d="M103.448 372.651L129.31 385.582V411.445L103.448 398.514V372.651Z" fill="#A358FF"/>
<path d="M129.31 385.582L155.172 372.651V398.514L129.31 411.445V385.582Z" fill="#2E00A6"/>
<path d="M103.448 346.789L129.31 333.858L155.172 346.789L129.31 359.72L103.448 346.789Z" fill="#6C26D9"/>
<path d="M103.448 346.789L129.31 359.72V385.582L103.448 372.651V346.789Z" fill="#A358FF"/>
<path d="M129.31 359.72L155.172 346.789V372.651L129.31 385.582V359.72Z" fill="#2E00A6"/>
<path d="M103.448 333.858L129.31 320.927L155.172 333.858L129.31 346.789L103.448 333.858Z" fill="#6C26D9"/>
<path d="M103.448 333.858L129.31 346.789V372.651L103.448 359.72V333.858Z" fill="#A358FF"/>
<path d="M129.31 346.789L155.172 333.858V359.72L129.31 372.651V346.789Z" fill="#2E00A6"/>
<path d="M0 320.927L25.8621 307.996L51.7241 320.927L25.8621 333.858L0 320.927Z" fill="#6C26D9"/>
<path d="M0 320.927L25.8621 333.858V359.72L0 346.789V320.927Z" fill="#A358FF"/>
<path d="M25.8621 333.858L51.7241 320.927V346.789L25.8621 359.72V333.858Z" fill="#2E00A6"/>
<path d="M0 295.065L25.8621 282.134L51.7241 295.065L25.8621 307.996L0 295.065Z" fill="#6C26D9"/>
<path d="M0 295.065L25.8621 307.996V333.858L0 320.927V295.065Z" fill="#A358FF"/>
<path d="M25.8621 307.996L51.7241 295.065V320.927L25.8621 333.858V307.996Z" fill="#2E00A6"/>
<path d="M0 269.203L25.8621 256.272L51.7241 269.203L25.8621 282.134L0 269.203Z" fill="#6C26D9"/>
<path d="M0 269.203L25.8621 282.134V307.996L0 295.065V269.203Z" fill="#A358FF"/>
<path d="M25.8621 282.134L51.7241 269.203V295.065L25.8621 307.996V282.134Z" fill="#2E00A6"/>
<path d="M0 243.341L25.8621 230.41L51.7241 243.341L25.8621 256.272L0 243.341Z" fill="#6C26D9"/>
<path d="M0 243.341L25.8621 256.272V282.134L0 269.203V243.341Z" fill="#A358FF"/>
<path d="M25.8621 256.272L51.7241 243.341V269.203L25.8621 282.134V256.272Z" fill="#2E00A6"/>
<path d="M0 217.479L25.8621 204.548L51.7241 217.479L25.8621 230.41L0 217.479Z" fill="#6C26D9"/>
<path d="M0 217.479L25.8621 230.41V256.272L0 243.341V217.479Z" fill="#A358FF"/>
<path d="M25.8621 230.41L51.7241 217.479V243.341L25.8621 256.272V230.41Z" fill="#2E00A6"/>
<path d="M25.8621 230.41L51.7241 217.479L77.5862 230.41L51.7241 243.341L25.8621 230.41Z" fill="#6C26D9"/>
<path d="M25.8621 230.41L51.7241 243.341V269.203L25.8621 256.272V230.41Z" fill="#A358FF"/>
<path d="M51.7241 243.341L77.5862 230.41V256.272L51.7241 269.203V243.341Z" fill="#2E00A6"/>
<path d="M51.7241 243.341L77.5862 230.41L103.448 243.341L77.5862 256.272L51.7241 243.341Z" fill="#6C26D9"/>
<path d="M51.7241 243.341L77.5862 256.272V282.134L51.7241 269.203V243.341Z" fill="#A358FF"/>
<path d="M77.5862 256.272L103.448 243.341V269.203L77.5862 282.134V256.272Z" fill="#2E00A6"/>
<path d="M77.5862 256.272L103.448 243.341L129.31 256.272L103.448 269.203L77.5862 256.272Z" fill="#6C26D9"/>
<path d="M77.5862 256.272L103.448 269.203V295.065L77.5862 282.134V256.272Z" fill="#A358FF"/>
<path d="M103.448 269.203L129.31 256.272V282.134L103.448 295.065V269.203Z" fill="#2E00A6"/>
<path d="M103.448 269.203L129.31 256.272L155.172 269.203L129.31 282.134L103.448 269.203Z" fill="#6C26D9"/>
<path d="M103.448 269.203L129.31 282.134V307.996L103.448 295.065V269.203Z" fill="#A358FF"/>
<path d="M129.31 282.134L155.172 269.203V295.065L129.31 307.996V282.134Z" fill="#2E00A6"/>
<path d="M175.862 359.203L201.724 346.272L227.586 359.203L201.724 372.134L175.862 359.203Z" fill="#6C26D9"/>
<path d="M175.862 359.203L201.724 372.134V397.996L175.862 385.065V359.203Z" fill="#A358FF"/>
<path d="M201.724 372.134L227.586 359.203V385.065L201.724 397.996V372.134Z" fill="#2E00A6"/>
<path d="M175.862 333.341L201.724 320.41L227.586 333.341L201.724 346.272L175.862 333.341Z" fill="#6C26D9"/>
<path d="M175.862 333.341L201.724 346.272V372.134L175.862 359.203V333.341Z" fill="#A358FF"/>
<path d="M201.724 346.272L227.586 333.341V359.203L201.724 372.134V346.272Z" fill="#2E00A6"/>
<path d="M175.862 307.479L201.724 294.548L227.586 307.479L201.724 320.41L175.862 307.479Z" fill="#6C26D9"/>
<path d="M175.862 307.479L201.724 320.41V346.272L175.862 333.341V307.479Z" fill="#A358FF"/>
<path d="M201.724 320.41L227.586 307.479V333.341L201.724 346.272V320.41Z" fill="#2E00A6"/>
<path d="M175.862 281.617L201.724 268.686L227.586 281.617L201.724 294.548L175.862 281.617Z" fill="#6C26D9"/>
<path d="M175.862 281.617L201.724 294.548V320.41L175.862 307.479V281.617Z" fill="#A358FF"/>
<path d="M201.724 294.548L227.586 281.617V307.479L201.724 320.41V294.548Z" fill="#2E00A6"/>
<path d="M175.862 255.755L201.724 242.824L227.586 255.755L201.724 268.686L175.862 255.755Z" fill="#6C26D9"/>
<path d="M175.862 255.755L201.724 268.686V294.548L175.862 281.617V255.755Z" fill="#A358FF"/>
<path d="M201.724 268.686L227.586 255.755V281.617L201.724 294.548V268.686Z" fill="#2E00A6"/>
<path d="M253.448 294.548L279.31 281.617L305.172 294.548L279.31 307.479L253.448 294.548Z" fill="#6C26D9"/>
<path d="M253.448 294.548L279.31 307.479V333.341L253.448 320.41V294.548Z" fill="#A358FF"/>
<path d="M279.31 307.479L305.172 294.548V320.41L279.31 333.341V307.479Z" fill="#2E00A6"/>
<path d="M227.586 333.341L253.448 320.41L279.31 333.341L253.448 346.272L227.586 333.341Z" fill="#6C26D9"/>
<path d="M227.586 333.341L253.448 346.272V372.134L227.586 359.203V333.341Z" fill="#A358FF"/>
<path d="M253.448 346.272L279.31 333.341V359.203L253.448 372.134V346.272Z" fill="#2E00A6"/>
<path d="M253.448 397.996L279.31 385.065L305.172 397.996L279.31 410.927L253.448 397.996Z" fill="#6C26D9"/>
<path d="M253.448 397.996L279.31 410.927V436.789L253.448 423.858V397.996Z" fill="#A358FF"/>
<path d="M279.31 410.927L305.172 397.996V423.858L279.31 436.789V410.927Z" fill="#2E00A6"/>
<path d="M253.448 372.134L279.31 359.203L305.172 372.134L279.31 385.065L253.448 372.134Z" fill="#6C26D9"/>
<path d="M253.448 372.134L279.31 385.065V410.927L253.448 397.996V372.134Z" fill="#A358FF"/>
<path d="M279.31 385.065L305.172 372.134V397.996L279.31 410.927V385.065Z" fill="#2E00A6"/>
<path d="M175.862 229.893L201.724 216.962L227.586 229.893L201.724 242.824L175.862 229.893Z" fill="#6C26D9"/>
<path d="M175.862 229.893L201.724 242.824V268.686L175.862 255.755V229.893Z" fill="#A358FF"/>
<path d="M201.724 242.824L227.586 229.893V255.755L201.724 268.686V242.824Z" fill="#2E00A6"/>
<path d="M201.724 242.824L227.586 229.893L253.448 242.824L227.586 255.755L201.724 242.824Z" fill="#6C26D9"/>
<path d="M201.724 242.824L227.586 255.755V281.617L201.724 268.686V242.824Z" fill="#A358FF"/>
<path d="M227.586 255.755L253.448 242.824V268.686L227.586 281.617V255.755Z" fill="#2E00A6"/>
<path d="M227.586 255.755L253.448 242.824L279.31 255.755L253.448 268.686L227.586 255.755Z" fill="#6C26D9"/>
<path d="M227.586 255.755L253.448 268.686V294.548L227.586 281.617V255.755Z" fill="#A358FF"/>
<path d="M253.448 268.686L279.31 255.755V281.617L253.448 294.548V268.686Z" fill="#2E00A6"/>
<path d="M253.448 268.686L279.31 255.755L305.172 268.686L279.31 281.617L253.448 268.686Z" fill="#6C26D9"/>
<path d="M253.448 268.686L279.31 281.617V307.479L253.448 294.548V268.686Z" fill="#A358FF"/>
<path d="M279.31 281.617L305.172 268.686V294.548L279.31 307.479V281.617Z" fill="#2E00A6"/>
<path d="M336.207 372.134L362.069 359.203L387.931 372.134L362.069 385.065L336.207 372.134Z" fill="#6C26D9"/>
<path d="M336.207 372.134L362.069 385.065V410.927L336.207 397.996V372.134Z" fill="#A358FF"/>
<path d="M362.069 385.065L387.931 372.134V397.996L362.069 410.927V385.065Z" fill="#2E00A6"/>
<path d="M336.207 346.272L362.069 333.341L387.931 346.272L362.069 359.203L336.207 346.272Z" fill="#6C26D9"/>
<path d="M336.207 346.272L362.069 359.203V385.065L336.207 372.134V346.272Z" fill="#A358FF"/>
<path d="M362.069 359.203L387.931 346.272V372.134L362.069 385.065V359.203Z" fill="#2E00A6"/>
<path d="M336.207 320.41L362.069 307.479L387.931 320.41L362.069 333.341L336.207 320.41Z" fill="#6C26D9"/>
<path d="M336.207 320.41L362.069 333.341V359.203L336.207 346.272V320.41Z" fill="#A358FF"/>
<path d="M362.069 333.341L387.931 320.41V346.272L362.069 359.203V333.341Z" fill="#2E00A6"/>
<path d="M336.207 294.548L362.069 281.617L387.931 294.548L362.069 307.479L336.207 294.548Z" fill="#6C26D9"/>
<path d="M336.207 294.548L362.069 307.479V333.341L336.207 320.41V294.548Z" fill="#A358FF"/>
<path d="M362.069 307.479L387.931 294.548V320.41L362.069 333.341V307.479Z" fill="#2E00A6"/>
<path d="M362.069 281.617L387.931 268.686L413.793 281.617L387.931 294.548L362.069 281.617Z" fill="#6C26D9"/>
<path d="M362.069 281.617L387.931 294.548V320.41L362.069 307.479V281.617Z" fill="#A358FF"/>
<path d="M387.931 294.548L413.793 281.617V307.479L387.931 320.41V294.548Z" fill="#2E00A6"/>
<path d="M387.931 294.548L413.793 281.617L439.655 294.548L413.793 307.479L387.931 294.548Z" fill="#6C26D9"/>
<path d="M387.931 294.548L413.793 307.479V333.341L387.931 320.41V294.548Z" fill="#A358FF"/>
<path d="M413.793 307.479L439.655 294.548V320.41L413.793 333.341V307.479Z" fill="#2E00A6"/>
<path d="M375 359.203L400.862 346.272L426.724 359.203L400.862 372.134L375 359.203Z" fill="#6C26D9"/>
<path d="M375 359.203L400.862 372.134V397.996L375 385.065V359.203Z" fill="#A358FF"/>
<path d="M400.862 372.134L426.724 359.203V385.065L400.862 397.996V372.134Z" fill="#2E00A6"/>
<path d="M413.793 397.996L439.655 385.065L465.517 397.996L439.655 410.927L413.793 397.996Z" fill="#6C26D9"/>
<path d="M413.793 397.996L439.655 410.927V436.789L413.793 423.858V397.996Z" fill="#A358FF"/>
<path d="M439.655 410.927L465.517 397.996V423.858L439.655 436.789V410.927Z" fill="#2E00A6"/>
<path d="M413.793 372.134L439.655 359.203L465.517 372.134L439.655 385.065L413.793 372.134Z" fill="#6C26D9"/>
<path d="M413.793 372.134L439.655 385.065V410.927L413.793 397.996V372.134Z" fill="#A358FF"/>
<path d="M439.655 385.065L465.517 372.134V397.996L439.655 410.927V385.065Z" fill="#2E00A6"/>
<path d="M413.793 346.272L439.655 333.341L465.517 346.272L439.655 359.203L413.793 346.272Z" fill="#6C26D9"/>
<path d="M413.793 346.272L439.655 359.203V385.065L413.793 372.134V346.272Z" fill="#A358FF"/>
<path d="M439.655 359.203L465.517 346.272V372.134L439.655 385.065V359.203Z" fill="#2E00A6"/>
<path d="M413.793 333.341L439.655 320.41L465.517 333.341L439.655 346.272L413.793 333.341Z" fill="#6C26D9"/>
<path d="M413.793 333.341L439.655 346.272V372.134L413.793 359.203V333.341Z" fill="#A358FF"/>
<path d="M439.655 346.272L465.517 333.341V359.203L439.655 372.134V346.272Z" fill="#2E00A6"/>
<path d="M491.379 332.824L517.241 319.893L543.103 332.824L517.241 345.755L491.379 332.824Z" fill="#6C26D9"/>
<path d="M491.379 332.824L517.241 345.755V371.617L491.379 358.686V332.824Z" fill="#A358FF"/>
<path d="M517.241 345.755L543.103 332.824V358.686L517.241 371.617V345.755Z" fill="#2E00A6"/>
<path d="M491.379 306.962L517.241 294.031L543.103 306.962L517.241 319.893L491.379 306.962Z" fill="#6C26D9"/>
<path d="M491.379 306.962L517.241 319.893V345.755L491.379 332.824V306.962Z" fill="#A358FF"/>
<path d="M517.241 319.893L543.103 306.962V332.824L517.241 345.755V319.893Z" fill="#2E00A6"/>
<path d="M491.379 281.1L517.241 268.169L543.103 281.1L517.241 294.031L491.379 281.1Z" fill="#6C26D9"/>
<path d="M491.379 281.1L517.241 294.031V319.893L491.379 306.962V281.1Z" fill="#A358FF"/>
<path d="M517.241 294.031L543.103 281.1V306.962L517.241 319.893V294.031Z" fill="#2E00A6"/>
<path d="M491.379 255.238L517.241 242.307L543.103 255.238L517.241 268.169L491.379 255.238Z" fill="#6C26D9"/>
<path d="M491.379 255.238L517.241 268.169V294.031L491.379 281.1V255.238Z" fill="#A358FF"/>
<path d="M517.241 268.169L543.103 255.238V281.1L517.241 294.031V268.169Z" fill="#2E00A6"/>
<path d="M491.379 229.376L517.241 216.445L543.103 229.376L517.241 242.307L491.379 229.376Z" fill="#6C26D9"/>
<path d="M491.379 229.376L517.241 242.307V268.169L491.379 255.238V229.376Z" fill="#A358FF"/>
<path d="M517.241 242.307L543.103 229.376V255.238L517.241 268.169V242.307Z" fill="#2E00A6"/>
<path d="M517.241 216.445L543.103 203.514L568.965 216.445L543.103 229.376L517.241 216.445Z" fill="#6C26D9"/>
<path d="M517.241 216.445L543.103 229.376V255.238L517.241 242.307V216.445Z" fill="#A358FF"/>
<path d="M543.103 229.376L568.965 216.445V242.307L543.103 255.238V229.376Z" fill="#2E00A6"/>
<path d="M543.103 229.376L568.965 216.445L594.828 229.376L568.965 242.307L543.103 229.376Z" fill="#6C26D9"/>
<path d="M543.103 229.376L568.965 242.307V268.169L543.103 255.238V229.376Z" fill="#A358FF"/>
<path d="M568.965 242.307L594.828 229.376V255.238L568.965 268.169V242.307Z" fill="#2E00A6"/>
<path d="M568.965 268.169L594.828 255.238L620.69 268.169L594.828 281.1L568.965 268.169Z" fill="#6C26D9"/>
<path d="M568.965 268.169L594.828 281.1V306.962L568.965 294.031V268.169Z" fill="#A358FF"/>
<path d="M594.828 281.1L620.69 268.169V294.031L594.828 306.962V281.1Z" fill="#2E00A6"/>
<path d="M517.241 371.617L543.103 358.686L568.965 371.617L543.103 384.548L517.241 371.617Z" fill="#6C26D9"/>
<path d="M517.241 371.617L543.103 384.548V410.41L517.241 397.479V371.617Z" fill="#A358FF"/>
<path d="M543.103 384.548L568.965 371.617V397.479L543.103 410.41V384.548Z" fill="#2E00A6"/>
<path d="M543.103 384.548L568.965 371.617L594.828 384.548L568.965 397.479L543.103 384.548Z" fill="#6C26D9"/>
<path d="M543.103 384.548L568.965 397.479V423.341L543.103 410.41V384.548Z" fill="#A358FF"/>
<path d="M568.965 397.479L594.828 384.548V410.41L568.965 423.341V397.479Z" fill="#2E00A6"/>
<path d="M568.965 242.307L594.828 229.376L620.69 242.307L594.828 255.238L568.965 242.307Z" fill="#6C26D9"/>
<path d="M568.965 242.307L594.828 255.238V281.1L568.965 268.169V242.307Z" fill="#A358FF"/>
<path d="M594.828 255.238L620.69 242.307V268.169L594.828 281.1V255.238Z" fill="#2E00A6"/>
<path d="M568.965 397.479L594.828 384.548L620.69 397.479L594.828 410.41L568.965 397.479Z" fill="#6C26D9"/>
<path d="M568.965 397.479L594.828 410.41V436.272L568.965 423.341V397.479Z" fill="#A358FF"/>
<path d="M594.828 410.41L620.69 397.479V423.341L594.828 436.272V410.41Z" fill="#2E00A6"/>
<path d="M568.965 371.617L594.828 358.686L620.69 371.617L594.828 384.548L568.965 371.617Z" fill="#6C26D9"/>
<path d="M568.965 371.617L594.828 384.548V410.41L568.965 397.479V371.617Z" fill="#A358FF"/>
<path d="M594.828 384.548L620.69 371.617V397.479L594.828 410.41V384.548Z" fill="#2E00A6"/>
<path d="M646.552 372.651L672.414 359.72L698.276 372.651L672.414 385.582L646.552 372.651Z" fill="#6C26D9"/>
<path d="M646.552 372.651L672.414 385.582V411.445L646.552 398.513V372.651Z" fill="#A358FF"/>
<path d="M672.414 385.582L698.276 372.651V398.513L672.414 411.445V385.582Z" fill="#2E00A6"/>
<path d="M646.552 346.789L672.414 333.858L698.276 346.789L672.414 359.72L646.552 346.789Z" fill="#6C26D9"/>
<path d="M646.552 346.789L672.414 359.72V385.582L646.552 372.651V346.789Z" fill="#A358FF"/>
<path d="M672.414 359.72L698.276 346.789V372.651L672.414 385.582V359.72Z" fill="#2E00A6"/>
<path d="M672.414 385.582L698.276 372.651L724.138 385.582L698.276 398.513L672.414 385.582Z" fill="#6C26D9"/>
<path d="M672.414 385.582L698.276 398.513V424.376L672.414 411.445V385.582Z" fill="#A358FF"/>
<path d="M698.276 398.513L724.138 385.582V411.445L698.276 424.376V398.513Z" fill="#2E00A6"/>
<path d="M698.276 398.514L724.138 385.582L750 398.514L724.138 411.445L698.276 398.514Z" fill="#6C26D9"/>
<path d="M698.276 398.514L724.138 411.445V437.307L698.276 424.376V398.514Z" fill="#A358FF"/>
<path d="M724.138 411.445L750 398.514V424.376L724.138 437.307V411.445Z" fill="#2E00A6"/>
<path d="M646.552 320.927L672.414 307.996L698.276 320.927L672.414 333.858L646.552 320.927Z" fill="#6C26D9"/>
<path d="M646.552 320.927L672.414 333.858V359.72L646.552 346.789V320.927Z" fill="#A358FF"/>
<path d="M672.414 333.858L698.276 320.927V346.789L672.414 359.72V333.858Z" fill="#2E00A6"/>
<path d="M672.414 333.858L698.276 320.927L724.138 333.858L698.276 346.789L672.414 333.858Z" fill="#6C26D9"/>
<path d="M672.414 333.858L698.276 346.789V372.651L672.414 359.72V333.858Z" fill="#A358FF"/>
<path d="M698.276 346.789L724.138 333.858V359.72L698.276 372.651V346.789Z" fill="#2E00A6"/>
<path d="M698.276 346.789L724.138 333.858L750 346.789L724.138 359.72L698.276 346.789Z" fill="#6C26D9"/>
<path d="M698.276 346.789L724.138 359.72V385.582L698.276 372.651V346.789Z" fill="#A358FF"/>
<path d="M724.138 359.72L750 346.789V372.651L724.138 385.582V359.72Z" fill="#2E00A6"/>
<path d="M646.552 295.065L672.414 282.134L698.276 295.065L672.414 307.996L646.552 295.065Z" fill="#6C26D9"/>
<path d="M646.552 295.065L672.414 307.996V333.858L646.552 320.927V295.065Z" fill="#A358FF"/>
<path d="M672.414 307.996L698.276 295.065V320.927L672.414 333.858V307.996Z" fill="#2E00A6"/>
<path d="M646.552 269.203L672.414 256.272L698.276 269.203L672.414 282.134L646.552 269.203Z" fill="#6C26D9"/>
<path d="M646.552 269.203L672.414 282.134V307.996L646.552 295.065V269.203Z" fill="#A358FF"/>
<path d="M672.414 282.134L698.276 269.203V295.065L672.414 307.996V282.134Z" fill="#2E00A6"/>
<path d="M672.414 282.134L698.276 269.203L724.138 282.134L698.276 295.065L672.414 282.134Z" fill="#6C26D9"/>
<path d="M672.414 282.134L698.276 295.065V320.927L672.414 307.996V282.134Z" fill="#A358FF"/>
<path d="M698.276 295.065L724.138 282.134V307.996L698.276 320.927V295.065Z" fill="#2E00A6"/>
<path d="M698.276 295.065L724.138 282.134L750 295.065L724.138 307.996L698.276 295.065Z" fill="#6C26D9"/>
<path d="M698.276 295.065L724.138 307.996V333.858L698.276 320.927V295.065Z" fill="#A358FF"/>
<path d="M724.138 307.996L750 295.065V320.927L724.138 333.858V307.996Z" fill="#2E00A6"/>
<path d="M0 111.486L20.2703 101.351L40.5405 111.486L20.2703 121.622L0 111.486Z" fill="#6C26D9"/>
<path d="M0 111.486L20.2703 121.622V141.892L0 131.757V111.486Z" fill="#A358FF"/>
<path d="M20.2703 121.622L40.5405 111.486V131.757L20.2703 141.892V121.622Z" fill="#2E00A6"/>
<path d="M0 91.2162L20.2703 81.0811L40.5405 91.2162L20.2703 101.351L0 91.2162Z" fill="#6C26D9"/>
<path d="M0 91.2162L20.2703 101.351V121.622L0 111.487V91.2162Z" fill="#A358FF"/>
<path d="M20.2703 101.351L40.5405 91.2162V111.487L20.2703 121.622V101.351Z" fill="#2E00A6"/>
<path d="M0 70.9459L20.2703 60.8108L40.5405 70.9459L20.2703 81.0811L0 70.9459Z" fill="#6C26D9"/>
<path d="M0 70.9459L20.2703 81.0811V101.351L0 91.2162V70.9459Z" fill="#A358FF"/>
<path d="M20.2703 81.0811L40.5405 70.9459V91.2162L20.2703 101.351V81.0811Z" fill="#2E00A6"/>
<path d="M0 50.6757L20.2703 40.5405L40.5405 50.6757L20.2703 60.8108L0 50.6757Z" fill="#6C26D9"/>
<path d="M0 50.6757L20.2703 60.8108V81.0811L0 70.9459V50.6757Z" fill="#A358FF"/>
<path d="M20.2703 60.8108L40.5405 50.6757V70.9459L20.2703 81.0811V60.8108Z" fill="#2E00A6"/>
<path d="M0 30.4054L20.2703 20.2703L40.5405 30.4054L20.2703 40.5406L0 30.4054Z" fill="#6C26D9"/>
<path d="M0 30.4054L20.2703 40.5405V60.8108L0 50.6757V30.4054Z" fill="#A358FF"/>
<path d="M20.2703 40.5405L40.5405 30.4054V50.6757L20.2703 60.8108V40.5405Z" fill="#2E00A6"/>
<path d="M30.4054 60.8108L50.6757 50.6757L70.9459 60.8108L50.6757 70.9459L30.4054 60.8108Z" fill="#6C26D9"/>
<path d="M30.4054 60.8108L50.6757 70.9459V91.2162L30.4054 81.0811V60.8108Z" fill="#A358FF"/>
<path d="M50.6757 70.9459L70.9459 60.8108V81.0811L50.6757 91.2162V70.9459Z" fill="#2E00A6"/>
<path d="M60.8108 131.757L81.0811 121.622L101.351 131.757L81.0811 141.892L60.8108 131.757Z" fill="#6C26D9"/>
<path d="M60.8108 131.757L81.0811 141.892V162.162L60.8108 152.027V131.757Z" fill="#A358FF"/>
<path d="M81.0811 141.892L101.351 131.757V152.027L81.0811 162.162V141.892Z" fill="#2E00A6"/>
<path d="M60.8108 111.486L81.0811 101.351L101.351 111.486L81.0811 121.622L60.8108 111.486Z" fill="#6C26D9"/>
<path d="M60.8108 111.486L81.0811 121.622V141.892L60.8108 131.757V111.486Z" fill="#A358FF"/>
<path d="M81.0811 121.622L101.351 111.486V131.757L81.0811 141.892V121.622Z" fill="#2E00A6"/>
<path d="M60.8108 91.2162L81.0811 81.0811L101.351 91.2162L81.0811 101.351L60.8108 91.2162Z" fill="#6C26D9"/>
<path d="M60.8108 91.2162L81.0811 101.351V121.622L60.8108 111.487V91.2162Z" fill="#A358FF"/>
<path d="M81.0811 101.351L101.351 91.2162V111.487L81.0811 121.622V101.351Z" fill="#2E00A6"/>
<path d="M60.8108 70.9459L81.0811 60.8108L101.351 70.9459L81.0811 81.0811L60.8108 70.9459Z" fill="#6C26D9"/>
<path d="M60.8108 70.9459L81.0811 81.0811V101.351L60.8108 91.2162V70.9459Z" fill="#A358FF"/>
<path d="M81.0811 81.0811L101.351 70.9459V91.2162L81.0811 101.351V81.0811Z" fill="#2E00A6"/>
<path d="M60.8108 50.6757L81.0811 40.5405L101.351 50.6757L81.0811 60.8108L60.8108 50.6757Z" fill="#6C26D9"/>
<path d="M60.8108 50.6757L81.0811 60.8108V81.0811L60.8108 70.9459V50.6757Z" fill="#A358FF"/>
<path d="M81.0811 60.8108L101.351 50.6757V70.9459L81.0811 81.0811V60.8108Z" fill="#2E00A6"/>
<path d="M121.622 90.8108L141.892 80.6757L162.162 90.8108L141.892 100.946L121.622 90.8108Z" fill="#6C26D9"/>
<path d="M121.622 90.8108L141.892 100.946V121.216L121.622 111.081V90.8108Z" fill="#A358FF"/>
<path d="M141.892 100.946L162.162 90.8108V111.081L141.892 121.216V100.946Z" fill="#2E00A6"/>
<path d="M121.622 70.5405L141.892 60.4054L162.162 70.5405L141.892 80.6757L121.622 70.5405Z" fill="#6C26D9"/>
<path d="M121.622 70.5405L141.892 80.6757V100.946L121.622 90.8108V70.5405Z" fill="#A358FF"/>
<path d="M141.892 80.6757L162.162 70.5405V90.8108L141.892 100.946V80.6757Z" fill="#2E00A6"/>
<path d="M121.622 50.2703L141.892 40.1351L162.162 50.2703L141.892 60.4054L121.622 50.2703Z" fill="#6C26D9"/>
<path d="M121.622 50.2703L141.892 60.4054V80.6757L121.622 70.5405V50.2703Z" fill="#A358FF"/>
<path d="M141.892 60.4054L162.162 50.2703V70.5405L141.892 80.6757V60.4054Z" fill="#2E00A6"/>
<path d="M141.892 40.1352L162.162 30L182.432 40.1352L162.162 50.2703L141.892 40.1352Z" fill="#6C26D9"/>
<path d="M141.892 40.1351L162.162 50.2703V70.5405L141.892 60.4054V40.1351Z" fill="#A358FF"/>
<path d="M162.162 50.2703L182.432 40.1351V60.4054L162.162 70.5405V50.2703Z" fill="#2E00A6"/>
<path d="M162.162 50.2703L182.432 40.1351L202.703 50.2703L182.432 60.4054L162.162 50.2703Z" fill="#6C26D9"/>
<path d="M162.162 50.2703L182.432 60.4054V80.6757L162.162 70.5405V50.2703Z" fill="#A358FF"/>
<path d="M182.432 60.4054L202.703 50.2703V70.5405L182.432 80.6757V60.4054Z" fill="#2E00A6"/>
<path d="M141.892 121.216L162.162 111.081L182.432 121.216L162.162 131.351L141.892 121.216Z" fill="#6C26D9"/>
<path d="M141.892 121.216L162.162 131.351V151.622L141.892 141.487V121.216Z" fill="#A358FF"/>
<path d="M162.162 131.351L182.432 121.216V141.487L162.162 151.622V131.351Z" fill="#2E00A6"/>
<path d="M162.162 131.351L182.432 121.216L202.703 131.351L182.432 141.487L162.162 131.351Z" fill="#6C26D9"/>
<path d="M162.162 131.351L182.432 141.486V161.757L162.162 151.622V131.351Z" fill="#A358FF"/>
<path d="M182.432 141.486L202.703 131.351V151.622L182.432 161.757V141.486Z" fill="#2E00A6"/>
<path d="M182.432 121.216L202.703 111.081L222.973 121.216L202.703 131.351L182.432 121.216Z" fill="#6C26D9"/>
<path d="M182.432 121.216L202.703 131.351V151.622L182.432 141.487V121.216Z" fill="#A358FF"/>
<path d="M202.703 131.351L222.973 121.216V141.487L202.703 151.622V131.351Z" fill="#2E00A6"/>
<path d="M182.432 100.946L202.703 90.8108L222.973 100.946L202.703 111.081L182.432 100.946Z" fill="#6C26D9"/>
<path d="M182.432 100.946L202.703 111.081V131.351L182.432 121.216V100.946Z" fill="#A358FF"/>
<path d="M202.703 111.081L222.973 100.946V121.216L202.703 131.351V111.081Z" fill="#2E00A6"/>
<path d="M182.432 80.6757L202.703 70.5405L222.973 80.6757L202.703 90.8108L182.432 80.6757Z" fill="#6C26D9"/>
<path d="M182.432 80.6757L202.703 90.8108V111.081L182.432 100.946V80.6757Z" fill="#A358FF"/>
<path d="M202.703 90.8108L222.973 80.6757V100.946L202.703 111.081V90.8108Z" fill="#2E00A6"/>
<path d="M243.243 91.6216L263.514 81.4865L283.784 91.6216L263.514 101.757L243.243 91.6216Z" fill="#6C26D9"/>
<path d="M243.243 91.6216L263.514 101.757V122.027L243.243 111.892V91.6216Z" fill="#A358FF"/>
<path d="M263.514 101.757L283.784 91.6216V111.892L263.514 122.027V101.757Z" fill="#2E00A6"/>
<path d="M243.243 71.3514L263.514 61.2162L283.784 71.3514L263.514 81.4865L243.243 71.3514Z" fill="#6C26D9"/>
<path d="M243.243 71.3513L263.514 81.4865V101.757L243.243 91.6216V71.3513Z" fill="#A358FF"/>
<path d="M263.514 81.4865L283.784 71.3513V91.6216L263.514 101.757V81.4865Z" fill="#2E00A6"/>
<path d="M243.243 51.0811L263.514 40.9459L283.784 51.0811L263.514 61.2162L243.243 51.0811Z" fill="#6C26D9"/>
<path d="M243.243 51.0811L263.514 61.2162V81.4865L243.243 71.3513V51.0811Z" fill="#A358FF"/>
<path d="M263.514 61.2162L283.784 51.0811V71.3513L263.514 81.4865V61.2162Z" fill="#2E00A6"/>
<path d="M263.514 40.9459L283.784 30.8108L304.054 40.9459L283.784 51.0811L263.514 40.9459Z" fill="#6C26D9"/>
<path d="M263.514 40.9459L283.784 51.0811V71.3513L263.514 61.2162V40.9459Z" fill="#A358FF"/>
<path d="M283.784 51.0811L304.054 40.9459V61.2162L283.784 71.3513V51.0811Z" fill="#2E00A6"/>
<path d="M283.784 51.0811L304.054 40.9459L324.324 51.0811L304.054 61.2162L283.784 51.0811Z" fill="#6C26D9"/>
<path d="M283.784 51.0811L304.054 61.2162V81.4865L283.784 71.3513V51.0811Z" fill="#A358FF"/>
<path d="M304.054 61.2162L324.324 51.0811V71.3513L304.054 81.4865V61.2162Z" fill="#2E00A6"/>
<path d="M263.514 122.027L283.784 111.892L304.054 122.027L283.784 132.162L263.514 122.027Z" fill="#6C26D9"/>
<path d="M263.514 122.027L283.784 132.162V152.432L263.514 142.297V122.027Z" fill="#A358FF"/>
<path d="M283.784 132.162L304.054 122.027V142.297L283.784 152.432V132.162Z" fill="#2E00A6"/>
<path d="M283.784 132.162L304.054 122.027L324.324 132.162L304.054 142.297L283.784 132.162Z" fill="#6C26D9"/>
<path d="M283.784 132.162L304.054 142.297V162.568L283.784 152.432V132.162Z" fill="#A358FF"/>
<path d="M304.054 142.297L324.324 132.162V152.432L304.054 162.568V142.297Z" fill="#2E00A6"/>
<path d="M304.054 122.027L324.324 111.892L344.595 122.027L324.324 132.162L304.054 122.027Z" fill="#6C26D9"/>
<path d="M304.054 122.027L324.324 132.162V152.432L304.054 142.297V122.027Z" fill="#A358FF"/>
<path d="M324.324 132.162L344.595 122.027V142.297L324.324 152.432V132.162Z" fill="#2E00A6"/>
<path d="M304.054 101.757L324.324 91.6216L344.595 101.757L324.324 111.892L304.054 101.757Z" fill="#6C26D9"/>
<path d="M304.054 101.757L324.324 111.892V132.162L304.054 122.027V101.757Z" fill="#A358FF"/>
<path d="M324.324 111.892L344.595 101.757V122.027L324.324 132.162V111.892Z" fill="#2E00A6"/>
<path d="M304.054 81.4865L324.324 71.3513L344.595 81.4865L324.324 91.6216L304.054 81.4865Z" fill="#6C26D9"/>
<path d="M304.054 81.4865L324.324 91.6216V111.892L304.054 101.757V81.4865Z" fill="#A358FF"/>
<path d="M324.324 91.6216L344.595 81.4865V101.757L324.324 111.892V91.6216Z" fill="#2E00A6"/>
<path d="M364.865 122.027L385.135 111.892L405.405 122.027L385.135 132.162L364.865 122.027Z" fill="#6C26D9"/>
<path d="M364.865 122.027L385.135 132.162V152.432L364.865 142.297V122.027Z" fill="#A358FF"/>
<path d="M385.135 132.162L405.405 122.027V142.297L385.135 152.432V132.162Z" fill="#2E00A6"/>
<path d="M364.865 101.757L385.135 91.6216L405.405 101.757L385.135 111.892L364.865 101.757Z" fill="#6C26D9"/>
<path d="M364.865 101.757L385.135 111.892V132.162L364.865 122.027V101.757Z" fill="#A358FF"/>
<path d="M385.135 111.892L405.405 101.757V122.027L385.135 132.162V111.892Z" fill="#2E00A6"/>
<path d="M364.865 81.4865L385.135 71.3513L405.405 81.4865L385.135 91.6216L364.865 81.4865Z" fill="#6C26D9"/>
<path d="M364.865 81.4865L385.135 91.6216V111.892L364.865 101.757V81.4865Z" fill="#A358FF"/>
<path d="M385.135 91.6216L405.405 81.4865V101.757L385.135 111.892V91.6216Z" fill="#2E00A6"/>
<path d="M364.865 61.2162L385.135 51.0811L405.405 61.2162L385.135 71.3513L364.865 61.2162Z" fill="#6C26D9"/>
<path d="M364.865 61.2162L385.135 71.3514V91.6216L364.865 81.4865V61.2162Z" fill="#A358FF"/>
<path d="M385.135 71.3514L405.405 61.2162V81.4865L385.135 91.6216V71.3514Z" fill="#2E00A6"/>
<path d="M364.865 40.9459L385.135 30.8108L405.405 40.9459L385.135 51.0811L364.865 40.9459Z" fill="#6C26D9"/>
<path d="M364.865 40.9459L385.135 51.0811V71.3513L364.865 61.2162V40.9459Z" fill="#A358FF"/>
<path d="M385.135 51.0811L405.405 40.9459V61.2162L385.135 71.3513V51.0811Z" fill="#2E00A6"/>
<path d="M385.135 71.3514L405.405 61.2162L425.676 71.3514L405.405 81.4865L385.135 71.3514Z" fill="#6C26D9"/>
<path d="M385.135 71.3513L405.405 81.4865V101.757L385.135 91.6216V71.3513Z" fill="#A358FF"/>
<path d="M405.405 81.4865L425.676 71.3513V91.6216L405.405 101.757V81.4865Z" fill="#2E00A6"/>
<path d="M405.405 101.757L425.676 91.6216L445.946 101.757L425.676 111.892L405.405 101.757Z" fill="#6C26D9"/>
<path d="M405.405 101.757L425.676 111.892V132.162L405.405 122.027V101.757Z" fill="#A358FF"/>
<path d="M425.676 111.892L445.946 101.757V122.027L425.676 132.162V111.892Z" fill="#2E00A6"/>
<path d="M425.676 132.162L445.946 122.027L466.216 132.162L445.946 142.297L425.676 132.162Z" fill="#6C26D9"/>
<path d="M425.676 132.162L445.946 142.297V162.568L425.676 152.432V132.162Z" fill="#A358FF"/>
<path d="M445.946 142.297L466.216 132.162V152.432L445.946 162.568V142.297Z" fill="#2E00A6"/>
<path d="M425.676 111.892L445.946 101.757L466.216 111.892L445.946 122.027L425.676 111.892Z" fill="#6C26D9"/>
<path d="M425.676 111.892L445.946 122.027V142.297L425.676 132.162V111.892Z" fill="#A358FF"/>
<path d="M445.946 122.027L466.216 111.892V132.162L445.946 142.297V122.027Z" fill="#2E00A6"/>
<path d="M425.676 91.6216L445.946 81.4865L466.216 91.6216L445.946 101.757L425.676 91.6216Z" fill="#6C26D9"/>
<path d="M425.676 91.6216L445.946 101.757V122.027L425.676 111.892V91.6216Z" fill="#A358FF"/>
<path d="M445.946 101.757L466.216 91.6216V111.892L445.946 122.027V101.757Z" fill="#2E00A6"/>
<path d="M425.676 71.3514L445.946 61.2162L466.216 71.3514L445.946 81.4865L425.676 71.3514Z" fill="#6C26D9"/>
<path d="M425.676 71.3513L445.946 81.4865V101.757L425.676 91.6216V71.3513Z" fill="#A358FF"/>
<path d="M445.946 81.4865L466.216 71.3513V91.6216L445.946 101.757V81.4865Z" fill="#2E00A6"/>
<path d="M425.676 51.0811L445.946 40.9459L466.216 51.0811L445.946 61.2162L425.676 51.0811Z" fill="#6C26D9"/>
<path d="M425.676 51.0811L445.946 61.2162V81.4865L425.676 71.3513V51.0811Z" fill="#A358FF"/>
<path d="M445.946 61.2162L466.216 51.0811V71.3513L445.946 81.4865V61.2162Z" fill="#2E00A6"/>
<path d="M486.486 111.486L506.757 101.351L527.027 111.486L506.757 121.622L486.486 111.486Z" fill="#6C26D9"/>
<path d="M486.486 111.486L506.757 121.622V141.892L486.486 131.757V111.486Z" fill="#A358FF"/>
<path d="M506.757 121.622L527.027 111.486V131.757L506.757 141.892V121.622Z" fill="#2E00A6"/>
<path d="M486.486 91.2162L506.757 81.0811L527.027 91.2162L506.757 101.351L486.486 91.2162Z" fill="#6C26D9"/>
<path d="M486.486 91.2162L506.757 101.351V121.622L486.486 111.487V91.2162Z" fill="#A358FF"/>
<path d="M506.757 101.351L527.027 91.2162V111.487L506.757 121.622V101.351Z" fill="#2E00A6"/>
<path d="M486.486 70.9459L506.757 60.8108L527.027 70.9459L506.757 81.0811L486.486 70.9459Z" fill="#6C26D9"/>
<path d="M486.486 70.9459L506.757 81.0811V101.351L486.486 91.2162V70.9459Z" fill="#A358FF"/>
<path d="M506.757 81.0811L527.027 70.9459V91.2162L506.757 101.351V81.0811Z" fill="#2E00A6"/>
<path d="M486.486 50.6757L506.757 40.5405L527.027 50.6757L506.757 60.8108L486.486 50.6757Z" fill="#6C26D9"/>
<path d="M486.486 50.6756L506.757 60.8108V81.081L486.486 70.9459V50.6756Z" fill="#A358FF"/>
<path d="M506.757 60.8108L527.027 50.6756V70.9459L506.757 81.081V60.8108Z" fill="#2E00A6"/>
<path d="M486.486 30.4054L506.757 20.2703L527.027 30.4054L506.757 40.5406L486.486 30.4054Z" fill="#6C26D9"/>
<path d="M486.486 30.4054L506.757 40.5405V60.8108L486.486 50.6757V30.4054Z" fill="#A358FF"/>
<path d="M506.757 40.5405L527.027 30.4054V50.6757L506.757 60.8108V40.5405Z" fill="#2E00A6"/>
<path d="M486.486 10.1351L506.757 0L527.027 10.1351L506.757 20.2703L486.486 10.1351Z" fill="#6C26D9"/>
<path d="M486.486 10.1351L506.757 20.2703V40.5405L486.486 30.4054V10.1351Z" fill="#A358FF"/>
<path d="M506.757 20.2703L527.027 10.1351V30.4054L506.757 40.5405V20.2703Z" fill="#2E00A6"/>
<path d="M506.757 121.622L527.027 111.486L547.297 121.622L527.027 131.757L506.757 121.622Z" fill="#6C26D9"/>
<path d="M506.757 121.622L527.027 131.757V152.027L506.757 141.892V121.622Z" fill="#A358FF"/>
<path d="M527.027 131.757L547.297 121.622V141.892L527.027 152.027V131.757Z" fill="#2E00A6"/>
<path d="M527.027 131.757L547.297 121.622L567.568 131.757L547.297 141.892L527.027 131.757Z" fill="#6C26D9"/>
<path d="M527.027 131.757L547.297 141.892V162.162L527.027 152.027V131.757Z" fill="#A358FF"/>
<path d="M547.297 141.892L567.568 131.757V152.027L547.297 162.162V141.892Z" fill="#2E00A6"/>
<path d="M587.838 131.351L608.108 121.216L628.378 131.351L608.108 141.486L587.838 131.351Z" fill="#6C26D9"/>
<path d="M587.838 131.351L608.108 141.486V161.757L587.838 151.622V131.351Z" fill="#A358FF"/>
<path d="M608.108 141.486L628.378 131.351V151.622L608.108 161.757V141.486Z" fill="#2E00A6"/>
<path d="M587.838 111.081L608.108 100.946L628.378 111.081L608.108 121.216L587.838 111.081Z" fill="#6C26D9"/>
<path d="M587.838 111.081L608.108 121.216V141.486L587.838 131.351V111.081Z" fill="#A358FF"/>
<path d="M608.108 121.216L628.378 111.081V131.351L608.108 141.486V121.216Z" fill="#2E00A6"/>
<path d="M587.838 90.8108L608.108 80.6757L628.378 90.8108L608.108 100.946L587.838 90.8108Z" fill="#6C26D9"/>
<path d="M587.838 90.8108L608.108 100.946V121.216L587.838 111.081V90.8108Z" fill="#A358FF"/>
<path d="M608.108 100.946L628.378 90.8108V111.081L608.108 121.216V100.946Z" fill="#2E00A6"/>
<path d="M587.838 60.4054L608.108 50.2703L628.378 60.4054L608.108 70.5405L587.838 60.4054Z" fill="#6C26D9"/>
<path d="M587.838 60.4054L608.108 70.5405V90.8108L587.838 80.6757V60.4054Z" fill="#A358FF"/>
<path d="M608.108 70.5405L628.378 60.4054V80.6757L608.108 90.8108V70.5405Z" fill="#2E00A6"/>
<path d="M679.054 132.162L699.324 122.027L719.595 132.162L699.324 142.297L679.054 132.162Z" fill="#6C26D9"/>
<path d="M679.054 132.162L699.324 142.297V162.568L679.054 152.432V132.162Z" fill="#A358FF"/>
<path d="M699.324 142.297L719.595 132.162V152.432L699.324 162.568V142.297Z" fill="#2E00A6"/>
<path d="M679.054 111.892L699.324 101.757L719.595 111.892L699.324 122.027L679.054 111.892Z" fill="#6C26D9"/>
<path d="M679.054 111.892L699.324 122.027V142.297L679.054 132.162V111.892Z" fill="#A358FF"/>
<path d="M699.324 122.027L719.595 111.892V132.162L699.324 142.297V122.027Z" fill="#2E00A6"/>
<path d="M679.054 91.6216L699.324 81.4865L719.595 91.6216L699.324 101.757L679.054 91.6216Z" fill="#6C26D9"/>
<path d="M679.054 91.6216L699.324 101.757V122.027L679.054 111.892V91.6216Z" fill="#A358FF"/>
<path d="M699.324 101.757L719.595 91.6216V111.892L699.324 122.027V101.757Z" fill="#2E00A6"/>
<path d="M679.054 81.4865L699.324 71.3513L719.595 81.4865L699.324 91.6216L679.054 81.4865Z" fill="#6C26D9"/>
<path d="M679.054 81.4865L699.324 91.6216V111.892L679.054 101.757V81.4865Z" fill="#A358FF"/>
<path d="M699.324 91.6216L719.595 81.4865V101.757L699.324 111.892V91.6216Z" fill="#2E00A6"/>
<path d="M648.649 40.9459L668.919 30.8108L689.189 40.9459L668.919 51.0811L648.649 40.9459Z" fill="#6C26D9"/>
<path d="M648.649 40.9459L668.919 51.0811V71.3513L648.649 61.2162V40.9459Z" fill="#A358FF"/>
<path d="M668.919 51.0811L689.189 40.9459V61.2162L668.919 71.3513V51.0811Z" fill="#2E00A6"/>
<path d="M668.919 51.0811L689.189 40.9459L709.459 51.0811L689.189 61.2162L668.919 51.0811Z" fill="#6C26D9"/>
<path d="M668.919 51.0811L689.189 61.2162V81.4865L668.919 71.3513V51.0811Z" fill="#A358FF"/>
<path d="M689.189 61.2162L709.459 51.0811V71.3513L689.189 81.4865V61.2162Z" fill="#2E00A6"/>
<path d="M689.189 61.2162L709.459 51.0811L729.73 61.2162L709.459 71.3513L689.189 61.2162Z" fill="#6C26D9"/>
<path d="M689.189 61.2162L709.459 71.3514V91.6216L689.189 81.4865V61.2162Z" fill="#A358FF"/>
<path d="M709.459 71.3514L729.73 61.2162V81.4865L709.459 91.6216V71.3514Z" fill="#2E00A6"/>
<path d="M709.459 71.3514L729.73 61.2162L750 71.3514L729.73 81.4865L709.459 71.3514Z" fill="#6C26D9"/>
<path d="M709.459 71.3513L729.73 81.4865V101.757L709.459 91.6216V71.3513Z" fill="#A358FF"/>
<path d="M729.73 81.4865L750 71.3513V91.6216L729.73 101.757V81.4865Z" fill="#2E00A6"/>
</svg>
