<svg width="81" height="81" viewBox="0 0 81 81" fill="none" xmlns="http://www.w3.org/2000/svg">
<path d="M20 50.1351L40.2703 40L60.5405 50.1351L40.2703 60.2703L20 50.1351Z" fill="#6C26D9"/>
<path d="M20 50.1351L40.2703 60.2703V80.5405L20 70.4054V50.1351Z" fill="#A358FF"/>
<path d="M40.2703 60.2703L60.5405 50.1351V70.4054L40.2703 80.5405V60.2703Z" fill="#2E00A6"/>
<path d="M0 20.1351L20.2703 10L40.5405 20.1351L20.2703 30.2703L0 20.1351Z" fill="#6C26D9"/>
<path d="M0 20.2704L20.2703 30.4056V50.6759L0 40.5407V20.2704Z" fill="#A358FF"/>
<path d="M20.2703 30.4054L40.5405 20.2703V40.5405L20.2703 50.6757V30.4054Z" fill="#2E00A6"/>
<path d="M40 40.1351L60.2703 30L80.5405 40.1351L60.2703 50.2703L40 40.1351Z" fill="#6C26D9"/>
<path d="M40 40.2704L60.2703 50.4056V70.6759L40 60.5407V40.2704Z" fill="#A358FF"/>
<path d="M60.2703 50.4054L80.5405 40.2703V60.5405L60.2703 70.6757V50.4054Z" fill="#2E00A6"/>
<path d="M20 10.1351L40.2703 0L60.5405 10.1351L40.2703 20.2703L20 10.1351Z" fill="#6C26D9"/>
<path d="M20 10.1351L40.2703 20.2703V40.5405L20 30.4054V10.1351Z" fill="#A358FF"/>
<path d="M40.2703 20.2703L60.5405 10.1351V30.4054L40.2703 40.5405V20.2703Z" fill="#2E00A6"/>
</svg>
