<svg viewBox="0 0 750 336" fill="none" xmlns="http://www.w3.org/2000/svg">
  <g id="Group">
    <g id="block">
      <g id="SvgjsSymbol1000">
        <path id="Vector" d="M0 119.885L47.954 95.9077L95.9079 119.885L47.954 143.862L0 119.885Z" fill="#6C26D9"/>
        </g>
      <g id="SvgjsSymbol1001">
        <path id="Vector_2" d="M0 119.885L47.954 143.862V191.816L0 167.839V119.885Z" fill="#A358FF"/>
        </g>
      <g id="SvgjsSymbol1002">
        <path id="Vector_3" d="M47.954 143.862L95.9079 119.885V167.839L47.954 191.816V143.862Z" fill="#2E00A6"/>
        </g>
      </g>
    <g id="block_2">
      <g id="SvgjsSymbol1000_2">
        <path id="Vector_4" d="M0 71.9311L47.954 47.9541L95.9079 71.9311L47.954 95.9081L0 71.9311Z" fill="#6C26D9"/>
        </g>
      <g id="SvgjsSymbol1001_2">
        <path id="Vector_5" d="M0 71.9312L47.954 95.9081V143.862L0 119.885V71.9312Z" fill="#A358FF"/>
        </g>
      <g id="SvgjsSymbol1002_2">
        <path id="Vector_6" d="M47.954 95.9081L95.9079 71.9312V119.885L47.954 143.862V95.9081Z" fill="#2E00A6"/>
        </g>
      </g>
    <g id="block_3">
      <g id="SvgjsSymbol1000_3">
        <path id="Vector_7" d="M0 23.977L47.954 0L95.9079 23.977L47.954 47.954L0 23.977Z" fill="#6C26D9"/>
        </g>
      <g id="SvgjsSymbol1001_3">
        <path id="Vector_8" d="M0 23.9771L47.954 47.954V95.908L0 71.931V23.9771Z" fill="#A358FF"/>
        </g>
      <g id="SvgjsSymbol1002_3">
        <path id="Vector_9" d="M47.954 47.954L95.9079 23.9771V71.931L47.954 95.908V47.954Z" fill="#2E00A6"/>
        </g>
      </g>
    <g id="block_4">
      <g id="SvgjsSymbol1000_4">
        <path id="Vector_10" d="M47.954 143.862L95.9079 119.885L143.862 143.862L95.9079 167.839L47.954 143.862Z" fill="#6C26D9"/>
        </g>
      <g id="SvgjsSymbol1001_4">
        <path id="Vector_11" d="M47.954 143.862L95.9079 167.839V215.793L47.954 191.816V143.862Z" fill="#A358FF"/>
        </g>
      <g id="SvgjsSymbol1002_4">
        <path id="Vector_12" d="M95.9079 167.839L143.862 143.862V191.816L95.9079 215.793V167.839Z" fill="#2E00A6"/>
        </g>
      </g>
    <g id="block_5">
      <g id="SvgjsSymbol1000_5">
        <path id="Vector_13" d="M95.908 263.747L143.862 239.77L191.816 263.747L143.862 287.724L95.908 263.747Z" fill="#6C26D9"/>
        </g>
      <g id="SvgjsSymbol1001_5">
        <path id="Vector_14" d="M95.9079 263.747L143.862 287.724V335.678L95.9079 311.701V263.747Z" fill="#A358FF"/>
        </g>
      <g id="SvgjsSymbol1002_5">
        <path id="Vector_15" d="M143.862 287.724L191.816 263.747V311.701L143.862 335.678V287.724Z" fill="#2E00A6"/>
        </g>
      </g>
    <g id="block_6">
      <g id="SvgjsSymbol1000_6">
        <path id="Vector_16" d="M95.908 215.793L143.862 191.816L191.816 215.793L143.862 239.77L95.908 215.793Z" fill="#6C26D9"/>
        </g>
      <g id="SvgjsSymbol1001_6">
        <path id="Vector_17" d="M95.9079 215.793L143.862 239.77V287.724L95.9079 263.747V215.793Z" fill="#A358FF"/>
        </g>
      <g id="SvgjsSymbol1002_6">
        <path id="Vector_18" d="M143.862 239.77L191.816 215.793V263.747L143.862 287.724V239.77Z" fill="#2E00A6"/>
        </g>
      </g>
    <g id="block_7">
      <g id="SvgjsSymbol1000_7">
        <path id="Vector_19" d="M95.908 167.839L143.862 143.862L191.816 167.839L143.862 191.816L95.908 167.839Z" fill="#6C26D9"/>
        </g>
      <g id="SvgjsSymbol1001_7">
        <path id="Vector_20" d="M95.9079 167.839L143.862 191.816V239.77L95.9079 215.793V167.839Z" fill="#A358FF"/>
        </g>
      <g id="SvgjsSymbol1002_7">
        <path id="Vector_21" d="M143.862 191.816L191.816 167.839V215.793L143.862 239.77V191.816Z" fill="#2E00A6"/>
        </g>
      </g>
    <g id="block_8">
      <g id="SvgjsSymbol1000_8">
        <path id="Vector_22" d="M95.908 119.885L143.862 95.9077L191.816 119.885L143.862 143.862L95.908 119.885Z" fill="#6C26D9"/>
        </g>
      <g id="SvgjsSymbol1001_8">
        <path id="Vector_23" d="M95.9079 119.885L143.862 143.862V191.816L95.9079 167.839V119.885Z" fill="#A358FF"/>
        </g>
      <g id="SvgjsSymbol1002_8">
        <path id="Vector_24" d="M143.862 143.862L191.816 119.885V167.839L143.862 191.816V143.862Z" fill="#2E00A6"/>
        </g>
      </g>
    <g id="block_9">
      <g id="SvgjsSymbol1000_9">
        <path id="Vector_25" d="M143.862 191.816L191.816 167.839L239.77 191.816L191.816 215.793L143.862 191.816Z" fill="#6C26D9"/>
        </g>
      <g id="SvgjsSymbol1001_9">
        <path id="Vector_26" d="M143.862 191.816L191.816 215.793V263.747L143.862 239.77V191.816Z" fill="#A358FF"/>
        </g>
      <g id="SvgjsSymbol1002_9">
        <path id="Vector_27" d="M191.816 215.793L239.77 191.816V239.77L191.816 263.747V215.793Z" fill="#2E00A6"/>
        </g>
      </g>
    <g id="block_10">
      <g id="SvgjsSymbol1000_10">
        <path id="Vector_28" d="M95.908 71.9311L143.862 47.9541L191.816 71.9311L143.862 95.9081L95.908 71.9311Z" fill="#6C26D9"/>
        </g>
      <g id="SvgjsSymbol1001_10">
        <path id="Vector_29" d="M95.9079 71.9312L143.862 95.9081V143.862L95.9079 119.885V71.9312Z" fill="#A358FF"/>
        </g>
      <g id="SvgjsSymbol1002_10">
        <path id="Vector_30" d="M143.862 95.9081L191.816 71.9312V119.885L143.862 143.862V95.9081Z" fill="#2E00A6"/>
        </g>
      </g>
    <g id="block_11">
      <g id="SvgjsSymbol1000_11">
        <path id="Vector_31" d="M279.092 215.793L327.046 191.816L375 215.793L327.046 239.77L279.092 215.793Z" fill="#6C26D9"/>
        </g>
      <g id="SvgjsSymbol1001_11">
        <path id="Vector_32" d="M279.092 215.793L327.046 239.77V287.724L279.092 263.747V215.793Z" fill="#A358FF"/>
        </g>
      <g id="SvgjsSymbol1002_11">
        <path id="Vector_33" d="M327.046 239.77L375 215.793V263.747L327.046 287.724V239.77Z" fill="#2E00A6"/>
        </g>
      </g>
    <g id="block_12">
      <g id="SvgjsSymbol1000_12">
        <path id="Vector_34" d="M279.092 167.839L327.046 143.862L375 167.839L327.046 191.816L279.092 167.839Z" fill="#6C26D9"/>
        </g>
      <g id="SvgjsSymbol1001_12">
        <path id="Vector_35" d="M279.092 167.839L327.046 191.816V239.77L279.092 215.793V167.839Z" fill="#A358FF"/>
        </g>
      <g id="SvgjsSymbol1002_12">
        <path id="Vector_36" d="M327.046 191.816L375 167.839V215.793L327.046 239.77V191.816Z" fill="#2E00A6"/>
        </g>
      </g>
    <g id="block_13">
      <g id="SvgjsSymbol1000_13">
        <path id="Vector_37" d="M279.092 119.885L327.046 95.9077L375 119.885L327.046 143.862L279.092 119.885Z" fill="#6C26D9"/>
        </g>
      <g id="SvgjsSymbol1001_13">
        <path id="Vector_38" d="M279.092 119.885L327.046 143.862V191.816L279.092 167.839V119.885Z" fill="#A358FF"/>
        </g>
      <g id="SvgjsSymbol1002_13">
        <path id="Vector_39" d="M327.046 143.862L375 119.885V167.839L327.046 191.816V143.862Z" fill="#2E00A6"/>
        </g>
      </g>
    <g id="block_14">
      <g id="SvgjsSymbol1000_14">
        <path id="Vector_40" d="M279.092 71.9311L327.046 47.9541L375 71.9311L327.046 95.9081L279.092 71.9311Z" fill="#6C26D9"/>
        </g>
      <g id="SvgjsSymbol1001_14">
        <path id="Vector_41" d="M279.092 71.9312L327.046 95.9081V143.862L279.092 119.885V71.9312Z" fill="#A358FF"/>
        </g>
      <g id="SvgjsSymbol1002_14">
        <path id="Vector_42" d="M327.046 95.9081L375 71.9312V119.885L327.046 143.862V95.9081Z" fill="#2E00A6"/>
        </g>
      </g>
    <g id="block_15">
      <g id="SvgjsSymbol1000_15">
        <path id="Vector_43" d="M279.092 23.977L327.046 0L375 23.977L327.046 47.954L279.092 23.977Z" fill="#6C26D9"/>
        </g>
      <g id="SvgjsSymbol1001_15">
        <path id="Vector_44" d="M279.092 23.9771L327.046 47.954V95.908L279.092 71.931V23.9771Z" fill="#A358FF"/>
        </g>
      <g id="SvgjsSymbol1002_15">
        <path id="Vector_45" d="M327.046 47.954L375 23.9771V71.931L327.046 95.908V47.954Z" fill="#2E00A6"/>
        </g>
      </g>
    <g id="block_16">
      <g id="SvgjsSymbol1000_16">
        <path id="Vector_46" d="M327.046 47.954L375 23.9771L422.954 47.954L375 71.931L327.046 47.954Z" fill="#6C26D9"/>
        </g>
      <g id="SvgjsSymbol1001_16">
        <path id="Vector_47" d="M327.046 47.9541L375 71.9311V119.885L327.046 95.9081V47.9541Z" fill="#A358FF"/>
        </g>
      <g id="SvgjsSymbol1002_16">
        <path id="Vector_48" d="M375 71.9311L422.954 47.9541V95.9081L375 119.885V71.9311Z" fill="#2E00A6"/>
        </g>
      </g>
    <g id="block_17">
      <g id="SvgjsSymbol1000_17">
        <path id="Vector_49" d="M327.046 239.77L375 215.793L422.954 239.77L375 263.747L327.046 239.77Z" fill="#6C26D9"/>
        </g>
      <g id="SvgjsSymbol1001_17">
        <path id="Vector_50" d="M327.046 239.77L375 263.747V311.701L327.046 287.724V239.77Z" fill="#A358FF"/>
        </g>
      <g id="SvgjsSymbol1002_17">
        <path id="Vector_51" d="M375 263.747L422.954 239.77V287.724L375 311.701V263.747Z" fill="#2E00A6"/>
        </g>
      </g>
    <g id="block_18">
      <g id="SvgjsSymbol1000_18">
        <path id="Vector_52" d="M375 263.747L422.954 239.77L470.908 263.747L422.954 287.724L375 263.747Z" fill="#6C26D9"/>
        </g>
      <g id="SvgjsSymbol1001_18">
        <path id="Vector_53" d="M375 263.747L422.954 287.724V335.678L375 311.701V263.747Z" fill="#A358FF"/>
        </g>
      <g id="SvgjsSymbol1002_18">
        <path id="Vector_54" d="M422.954 287.724L470.908 263.747V311.701L422.954 335.678V287.724Z" fill="#2E00A6"/>
        </g>
      </g>
    <g id="block_19">
      <g id="SvgjsSymbol1000_19">
        <path id="Vector_55" d="M375 215.793L422.954 191.816L470.908 215.793L422.954 239.77L375 215.793Z" fill="#6C26D9"/>
        </g>
      <g id="SvgjsSymbol1001_19">
        <path id="Vector_56" d="M375 215.793L422.954 239.77V287.724L375 263.747V215.793Z" fill="#A358FF"/>
        </g>
      <g id="SvgjsSymbol1002_19">
        <path id="Vector_57" d="M422.954 239.77L470.908 215.793V263.747L422.954 287.724V239.77Z" fill="#2E00A6"/>
        </g>
      </g>
    <g id="block_20">
      <g id="SvgjsSymbol1000_20">
        <path id="Vector_58" d="M375 167.839L422.954 143.862L470.908 167.839L422.954 191.816L375 167.839Z" fill="#6C26D9"/>
        </g>
      <g id="SvgjsSymbol1001_20">
        <path id="Vector_59" d="M375 167.839L422.954 191.816V239.77L375 215.793V167.839Z" fill="#A358FF"/>
        </g>
      <g id="SvgjsSymbol1002_20">
        <path id="Vector_60" d="M422.954 191.816L470.908 167.839V215.793L422.954 239.77V191.816Z" fill="#2E00A6"/>
        </g>
      </g>
    <g id="block_21">
      <g id="SvgjsSymbol1000_21">
        <path id="Vector_61" d="M375 119.885L422.954 95.9077L470.908 119.885L422.954 143.862L375 119.885Z" fill="#6C26D9"/>
        </g>
      <g id="SvgjsSymbol1001_21">
        <path id="Vector_62" d="M375 119.885L422.954 143.862V191.816L375 167.839V119.885Z" fill="#A358FF"/>
        </g>
      <g id="SvgjsSymbol1002_21">
        <path id="Vector_63" d="M422.954 143.862L470.908 119.885V167.839L422.954 191.816V143.862Z" fill="#2E00A6"/>
        </g>
      </g>
    <g id="block_22">
      <g id="SvgjsSymbol1000_22">
        <path id="Vector_64" d="M375 71.9311L422.954 47.9541L470.908 71.9311L422.954 95.9081L375 71.9311Z" fill="#6C26D9"/>
        </g>
      <g id="SvgjsSymbol1001_22">
        <path id="Vector_65" d="M375 71.9312L422.954 95.9081V143.862L375 119.885V71.9312Z" fill="#A358FF"/>
        </g>
      <g id="SvgjsSymbol1002_22">
        <path id="Vector_66" d="M422.954 95.9081L470.908 71.9312V119.885L422.954 143.862V95.9081Z" fill="#2E00A6"/>
        </g>
      </g>
    <g id="block_23">
      <g id="SvgjsSymbol1000_23">
        <path id="Vector_67" d="M510.23 119.885L558.184 95.9077L606.138 119.885L558.184 143.862L510.23 119.885Z" fill="#6C26D9"/>
        </g>
      <g id="SvgjsSymbol1001_23">
        <path id="Vector_68" d="M510.23 119.885L558.184 143.862V191.816L510.23 167.839V119.885Z" fill="#A358FF"/>
        </g>
      <g id="SvgjsSymbol1002_23">
        <path id="Vector_69" d="M558.184 143.862L606.138 119.885V167.839L558.184 191.816V143.862Z" fill="#2E00A6"/>
        </g>
      </g>
    <g id="block_24">
      <g id="SvgjsSymbol1000_24">
        <path id="Vector_70" d="M510.23 71.9311L558.184 47.9541L606.138 71.9311L558.184 95.9081L510.23 71.9311Z" fill="#6C26D9"/>
        </g>
      <g id="SvgjsSymbol1001_24">
        <path id="Vector_71" d="M510.23 71.9312L558.184 95.9081V143.862L510.23 119.885V71.9312Z" fill="#A358FF"/>
        </g>
      <g id="SvgjsSymbol1002_24">
        <path id="Vector_72" d="M558.184 95.9081L606.138 71.9312V119.885L558.184 143.862V95.9081Z" fill="#2E00A6"/>
        </g>
      </g>
    <g id="block_25">
      <g id="SvgjsSymbol1000_25">
        <path id="Vector_73" d="M510.23 23.977L558.184 0L606.138 23.977L558.184 47.954L510.23 23.977Z" fill="#6C26D9"/>
        </g>
      <g id="SvgjsSymbol1001_25">
        <path id="Vector_74" d="M510.23 23.9771L558.184 47.954V95.908L510.23 71.931V23.9771Z" fill="#A358FF"/>
        </g>
      <g id="SvgjsSymbol1002_25">
        <path id="Vector_75" d="M558.184 47.954L606.138 23.9771V71.931L558.184 95.908V47.954Z" fill="#2E00A6"/>
        </g>
      </g>
    <g id="block_26">
      <g id="SvgjsSymbol1000_26">
        <path id="Vector_76" d="M558.184 143.862L606.138 119.885L654.092 143.862L606.138 167.839L558.184 143.862Z" fill="#6C26D9"/>
        </g>
      <g id="SvgjsSymbol1001_26">
        <path id="Vector_77" d="M558.184 143.862L606.138 167.839V215.793L558.184 191.816V143.862Z" fill="#A358FF"/>
        </g>
      <g id="SvgjsSymbol1002_26">
        <path id="Vector_78" d="M606.138 167.839L654.092 143.862V191.816L606.138 215.793V167.839Z" fill="#2E00A6"/>
        </g>
      </g>
    <g id="block_27">
      <g id="SvgjsSymbol1000_27">
        <path id="Vector_79" d="M606.138 263.747L654.092 239.77L702.046 263.747L654.092 287.724L606.138 263.747Z" fill="#6C26D9"/>
        </g>
      <g id="SvgjsSymbol1001_27">
        <path id="Vector_80" d="M606.138 263.747L654.092 287.724V335.678L606.138 311.701V263.747Z" fill="#A358FF"/>
        </g>
      <g id="SvgjsSymbol1002_27">
        <path id="Vector_81" d="M654.092 287.724L702.046 263.747V311.701L654.092 335.678V287.724Z" fill="#2E00A6"/>
        </g>
      </g>
    <g id="block_28">
      <g id="SvgjsSymbol1000_28">
        <path id="Vector_82" d="M606.138 215.793L654.092 191.816L702.046 215.793L654.092 239.77L606.138 215.793Z" fill="#6C26D9"/>
        </g>
      <g id="SvgjsSymbol1001_28">
        <path id="Vector_83" d="M606.138 215.793L654.092 239.77V287.724L606.138 263.747V215.793Z" fill="#A358FF"/>
        </g>
      <g id="SvgjsSymbol1002_28">
        <path id="Vector_84" d="M654.092 239.77L702.046 215.793V263.747L654.092 287.724V239.77Z" fill="#2E00A6"/>
        </g>
      </g>
    <g id="block_29">
      <g id="SvgjsSymbol1000_29">
        <path id="Vector_85" d="M606.138 167.839L654.092 143.862L702.046 167.839L654.092 191.816L606.138 167.839Z" fill="#6C26D9"/>
        </g>
      <g id="SvgjsSymbol1001_29">
        <path id="Vector_86" d="M606.138 167.839L654.092 191.816V239.77L606.138 215.793V167.839Z" fill="#A358FF"/>
        </g>
      <g id="SvgjsSymbol1002_29">
        <path id="Vector_87" d="M654.092 191.816L702.046 167.839V215.793L654.092 239.77V191.816Z" fill="#2E00A6"/>
        </g>
      </g>
    <g id="block_30">
      <g id="SvgjsSymbol1000_30">
        <path id="Vector_88" d="M606.138 119.885L654.092 95.9077L702.046 119.885L654.092 143.862L606.138 119.885Z" fill="#6C26D9"/>
        </g>
      <g id="SvgjsSymbol1001_30">
        <path id="Vector_89" d="M606.138 119.885L654.092 143.862V191.816L606.138 167.839V119.885Z" fill="#A358FF"/>
        </g>
      <g id="SvgjsSymbol1002_30">
        <path id="Vector_90" d="M654.092 143.862L702.046 119.885V167.839L654.092 191.816V143.862Z" fill="#2E00A6"/>
        </g>
      </g>
    <g id="block_31">
      <g id="SvgjsSymbol1000_31">
        <path id="Vector_91" d="M606.138 71.9311L654.092 47.9541L702.046 71.9311L654.092 95.9081L606.138 71.9311Z" fill="#6C26D9"/>
        </g>
      <g id="SvgjsSymbol1001_31">
        <path id="Vector_92" d="M606.138 71.9312L654.092 95.9081V143.862L606.138 119.885V71.9312Z" fill="#A358FF"/>
        </g>
      <g id="SvgjsSymbol1002_31">
        <path id="Vector_93" d="M654.092 95.9081L702.046 71.9312V119.885L654.092 143.862V95.9081Z" fill="#2E00A6"/>
        </g>
      </g>
    <g id="block_32">
      <g id="SvgjsSymbol1000_32">
        <path id="Vector_94" d="M654.092 191.816L702.046 167.839L750 191.816L702.046 215.793L654.092 191.816Z" fill="#6C26D9"/>
        </g>
      <g id="SvgjsSymbol1001_32">
        <path id="Vector_95" d="M654.092 191.816L702.046 215.793V263.747L654.092 239.77V191.816Z" fill="#A358FF"/>
        </g>
      <g id="SvgjsSymbol1002_32">
        <path id="Vector_96" d="M702.046 215.793L750 191.816V239.77L702.046 263.747V215.793Z" fill="#2E00A6"/>
        </g>
      </g>
    </g>
  </svg>
